# xmcd
#
# Track frame offsets: 
#        150
#        19397
#        33680
#        46975
#        61980
#        73695
#        88045
#        101500
#        117042
#        127992
#        142817
#        157500
#        168585
#        187445
#        197355
#        213265
#        219435
#        235572
#        248477
#        261427
#        273367
#        287447
#        300355
#
# Disc length: 4191 seconds
#
# Revision: 2
# Processed by: cddbd v1.5.2PL0 Copyright (c) Steve Scherf et al.
# Submitted via: ExactAudioCopy v0.99pb3
#
DISCID=3c105d17
DTITLE=Black Ace - I'm the Boss Card in Your Hand
DYEAR=1992
DGENRE=Blues
TTITLE0=I Am The Black Ace
TTITLE1=Bad Times Stomp
TTITLE2=Drink On Little Girl
TTITLE3=Santa Fe Blues
TTITLE4=New Triflin' Woman
TTITLE5=Evil Woman Blues
TTITLE6='Fore Day Creep
TTITLE7=Little Augie
TTITLE8=Your Legs Too Little
TTITLE9=No Good Woman
TTITLE10=Santa Claus Blues
TTITLE11=Golden Slipper
TTITLE12=Hitchhiking Woman
TTITLE13=Ace's Guitar Blues
TTITLE14=Beer Drinking Woman
TTITLE15=Ace's Guitar Breakdown
TTITLE16=I've Been In Love With You Baby
TTITLE17=Trifling Woman
TTITLE18=Black Ace
TTITLE19=You Gonna Need My Help Someday
TTITLE20=Whiskey And Women
TTITLE21=Christmas Time Blues
TTITLE22=Lowing Heifer
EXTD=Arhoolie CD 374\n\nB.K. Turner "Black Ace":  vocals and National 
EXTD=steel guitar\n\nProduced by Chris Strachwitz
EXTT0=
EXTT1=
EXTT2=
EXTT3=
EXTT4=
EXTT5=
EXTT6=
EXTT7=
EXTT8=
EXTT9=
EXTT10=
EXTT11=
EXTT12=
EXTT13=
EXTT14=
EXTT15=
EXTT16=
EXTT17=
EXTT18=
EXTT19=
EXTT20=
EXTT21=
EXTT22=
PLAYORDER=
